<svg fill="none" height="40" viewBox="0 0 40 40" width="40" xmlns="http://www.w3.org/2000/svg"><rect fill="#f3f5fb" height="40" rx="20" width="40"/><g fill="#004cff" stroke="#004cff" stroke-width=".563271"><path d="m27.515 18.5691c-.2816-.2414-11.7505-8.2495-12.2736-8.57142l-.161-.12073v1.97185c0 .6438.322.8451.7244 1.167l.0805.0402c.5634.4024 8.7324 6.0765 9.8189 6.8411-1.0865.7646-9.3763 6.5191-9.8994 6.841-.6439.4024-.6841.6841-.6841 1.2475v1.8914s12.1932-8.491 12.4346-8.6922c.5634-.4024.6841-.9256.6841-1.2475v-.2414c0-.4024-.2415-.8049-.7244-1.1268z"/><path d="m20.3521 20.7819c.3219 0 .6439-.1207.9658-.3622.4024-.2816.7646-.5231.7646-.5231l.1207-.0805-.1207-.0805c-.0403-.0402-5.3924-3.7424-5.9557-4.1046-.2415-.2012-.5634-.2414-.7646-.1207s-.3622.3219-.3622.6439v1.2474l.0402.0403c.0403.0402 3.7022 2.5754 4.4266 3.0583.3219.2012.6036.2817.8853.2817z"/></g></svg>