<svg fill="none" height="40" viewBox="0 0 40 40" width="40" xmlns="http://www.w3.org/2000/svg"><rect fill="#f3f5fb" height="40" rx="20" width="40"/><path clip-rule="evenodd" d="m26.7993 20.1469c-2.8902 0-5.2331 2.3176-5.2331 5.1766 0 2.8588 2.3429 5.1764 5.2331 5.1764s5.2331-2.3176 5.2331-5.1764c0-2.859-2.3429-5.1766-5.2331-5.1766zm-13.5962.0006c-2.8901 0-5.23313 2.3171-5.23313 5.1761 0 2.8589 2.34303 5.1765 5.23313 5.1765 2.8903 0 5.2334-2.3176 5.2334-5.1765 0-2.859-2.3431-5.1761-5.2334-5.1761zm12.0311-6.4712c0 2.859-2.3429 5.1769-5.233 5.1769-2.8903 0-5.2332-2.3179-5.2332-5.1769 0-2.8585 2.3429-5.1763 5.2332-5.1763 2.8901 0 5.233 2.3178 5.233 5.1763z" fill="#ff5e5e" fill-rule="evenodd"/></svg>