<svg fill="none" height="40" viewBox="0 0 40 40" width="40" xmlns="http://www.w3.org/2000/svg"><rect fill="#f3f5fb" height="40" rx="20" width="40"/><path d="m24.4736 10.8636v18c0 2.0157 1.3405 3.1364 2.7632 3.1364 1.3158 0 2.7631-.9545 2.7631-3.1364v-17.8636c0-1.84517-1.3157-3-2.7631-3s-2.7632 1.27415-2.7632 2.8636z" fill="#f8ab00"/><g fill="#e37300"><path d="m17.2368 20.0004v8.8636c0 2.0156 1.3405 3.1364 2.7632 3.1364 1.3158 0 2.7631-.9546 2.7631-3.1364v-8.7273c0-1.8452-1.3158-3-2.7631-3-1.4474 0-2.7632 1.2742-2.7632 2.8637z"/><path d="m15.5263 29.1361c0 1.581-1.2376 2.8636-2.7631 2.8636s-2.7632-1.2826-2.7632-2.8636 1.2377-2.8636 2.7632-2.8636 2.7631 1.2826 2.7631 2.8636"/></g></svg>