<svg fill="none" height="40" viewBox="0 0 40 40" width="40" xmlns="http://www.w3.org/2000/svg"><rect fill="#f3f5fb" height="40" rx="20" width="40"/><path d="m15.4866 12.5183c.2126-.5554.505-1.0667.9391-1.481 1.7366-1.68373 4.6073-1.26059 5.7857.8551.886 1.6044 1.8251 3.1736 2.7377 4.7603 1.5239 2.6358 3.0656 5.2716 4.5718 7.9163 1.267 2.2126-.1063 5.0071-2.6226 5.3862-1.5416.2292-2.9858-.476-3.7832-1.8512-1.3379-2.3185-2.6846-4.637-4.0225-6.9466-.0266-.0529-.062-.097-.0974-.141-.1418-.1146-.2038-.2821-.2924-.432-.5937-1.0402-1.205-2.0716-1.7986-3.103-.381-.67-.7797-1.3311-1.1607-2.0011-.3455-.5995-.505-1.2518-.4873-1.9394.0266-.3526.0709-.7052.2304-1.0226" fill="#3c8bd9"/><path d="m15.4865 12.5186c-.0798.3173-.1506.6347-.1684.9697-.0265.7404.1595 1.428.5316 2.0716.9747 1.6661 1.9493 3.341 2.915 5.0159.0886.1499.1595.2998.2481.4408-.5316.9168-1.0632 1.8248-1.6037 2.7416-.7442 1.2782-1.4885 2.5653-2.2416 3.8435-.0354 0-.0443-.0176-.0531-.0441-.0089-.0705.0177-.1322.0354-.2027.3633-1.3223.062-2.4948-.8506-3.4997-.5581-.6083-1.267-.9521-2.0821-1.0667-1.0632-.1499-2.0023.1234-2.84405.7846-.15063.1146-.24809.2821-.42529.3702-.03544 0-.05316-.0176-.06202-.044.42528-.7317.84171-1.4634 1.26696-2.1951 1.7543-3.0325 3.5086-6.065 5.2718-9.0887.0177-.0352.0443-.0617.062-.0969" fill="#fabc04"/><path d="m8.92125 23.9254c.16834-.1498.32782-.3085.50502-.4496 2.15303-1.6925 5.38693-.4672 5.85653 2.2127.1151.6435.0531 1.2606-.1418 1.8777-.0089.0529-.0177.097-.0354.1499-.0798.141-.1507.2909-.2393.4319-.7885 1.2959-1.9492 1.9394-3.4731 1.8424-1.74543-.1234-3.11873-1.4281-3.35796-3.1559-.11518-.8375.05316-1.622.48731-2.3449.0886-.1587.19492-.2997.29238-.4584.0443-.0353.02658-.1058.10632-.1058" fill="#34a852"/><path d="m8.92405 23.9259c-.03641.0352-.03641.097-.10013.1058-.0091-.0617.02731-.097.06372-.1411z" fill="#fabc04"/><path d="m15.1079 27.7163c-.0406-.0617 0-.1058.0406-.1499.0102.0088.0305.0265.0407.0353z" fill="#e1c025"/></svg>