<svg fill="none" height="40" viewBox="0 0 40 40" width="40" xmlns="http://www.w3.org/2000/svg"><rect fill="#f3f5fb" height="40" rx="20" width="40"/><path clip-rule="evenodd" d="m27.813 17.2006c.9354.5519 1.6836 1.2851 2.2155 2.1997.5226.9079.7715 1.8989.7715 2.973v.0545c0 1.0919-.3093 2.0844-.8709 2.9827-.5587.8958-1.2983 1.5975-2.2432 2.1106-.8967.4855-1.8506.7229-2.8618.7229h-.1676c-.9147 0-1.7505-.1993-2.5077-.5265-.3839-.1657-.741-.3579-1.0716-.5861l-2.4118 2.4105c.0569.1813.0871.3719.0871.5674.0012.5015-.1982.9827-.5538 1.3366-.3541.3558-.8359.5554-1.3381.5541-.5021.0013-.9838-.1982-1.3376-.5541-.3575-.3571-.5543-.8317-.5545-1.3366-.0017-.5017.1976-.9833.5535-1.3371.5197-.5222 1.2968-.6925 1.9875-.4356l2.3333-2.3376c-.386-.4759-.6977-1.0022-.9109-1.5812-.2421-.663-.3843-1.3687-.3843-2.1163v-.2222c0-1.065.3429-2.0413.9041-2.9286.2769-.4352.6231-.8232.9947-1.1642l-7.0305-5.0624-.5117-.3879c-.3682.2217-.7949.3566-1.2562.3566-1.3525 0-2.44805-1.0955-2.44805-2.4465 0-1.35115 1.09435-2.4463 2.44685-2.4463s2.4474 1.09515 2.4474 2.4463c0 .2253-.0443.4388-.1018.646 1.8529 1.4048 4.7104 3.5742 6.519 4.9472.5579.4235 1.016.7713 1.314.9975.6188-.3128 1.2964-.5164 1.9499-.6108v-2.9073c-.8168-.3466-1.2945-1.1138-1.2945-2.0088 0-1.2199.996-2.20842 2.2167-2.20842 1.2197 0 2.1985.98852 2.1985 2.20842 0 .895-.5069 1.6622-1.3237 2.0088v2.906c.8168.1109 1.5417.369 2.2407.7757zm-2.9888 8.4313c.8506 0 1.6031-.4478 2.2577-1.1748.5699-.6265.8549-1.3166.8549-2.0617 0-.1117-.0046-.2285-.0136-.3427-.0572-.549-.2349-1.053-.5337-1.5203-.3076-.467-.7044-.8221-1.1901-1.082-.4767-.2438-.9818-.3489-1.5154-.3489h-.0547c-.5885 0-1.1168.1598-1.6114.4857-.5039.3281-.8827.7408-1.1632 1.2716-.2624.4855-.3664.9996-.3664 1.5418v.1675c0 .5515.1829 1.0717.5201 1.5481.3263.4854.7249.8687 1.2493 1.1374.4652.2441.9405.3783 1.4263.3783z" fill="#ff6640" fill-rule="evenodd"/></svg>