<svg fill="none" height="40" viewBox="0 0 40 40" width="40" xmlns="http://www.w3.org/2000/svg"><rect fill="#f3f5fb" height="40" rx="20" width="40"/><path clip-rule="evenodd" d="m9 12.1186c0-.6914.24775-1.2618.74324-1.7111.49546-.44942 1.13966-.6741 1.93246-.6741.7786 0 1.4086.22122 1.8899.6637.4955.4563.7433 1.0509.7433 1.7837 0 .6637-.2407 1.2168-.722 1.6593-.4955.4563-1.1467.6844-1.9537.6844h-.0212c-.7787 0-1.4086-.2281-1.88999-.6844-.48135-.4563-.72201-1.0302-.72201-1.7215zm.27607 18.148v-13.8548h4.71433v13.8548zm12.04053.0002h-4.7143c.0283-4.1758.0425-7.4182.0425-9.7274 0-2.3091-.0142-3.6849-.0425-4.1274h4.7143v1.9704l-.0212.0415h.0212v-.0415c1.0193-1.5348 2.4421-2.3022 4.2684-2.3022 1.628 0 2.9375.5289 3.9285 1.5866.991 1.0578 1.4865 2.6099 1.4865 4.6563v7.9437h-4.7143v-7.4044c0-2.0879-.7928-3.1319-2.3783-3.1319-.6088 0-1.1149.1625-1.5184.4875-.4035.3249-.7043.7224-.9025 1.1925-.1132.2627-.1699.6361-.1699 1.12z" fill="#0092d9" fill-rule="evenodd"/></svg>