<svg fill="none" height="40" viewBox="0 0 40 40" width="40" xmlns="http://www.w3.org/2000/svg"><rect fill="#f3f5fb" height="40" rx="20" width="40"/><rect fill="#ffdf1d" height="32" rx="16" width="32" x="4" y="4"/><g fill="#000"><path d="m24.8052 19.8712h.4529c.0961-.2042.0961-.5037 0-.844-.096-.5037-.247-.844-.5489-.8032-.3019.0545-.3019.4492-.2059.9529.0412.2995.151.5445.3019.6943z"/><path d="m22.1427 20.3202c.2059.0953.3568.1497.398.0953.0549-.0545 0-.0953-.0549-.2042-.0961-.2042-.3568-.354-.549-.4492-.5077-.2042-1.0567-.1498-1.5096.2041-.1509.0953-.3019.2451-.247.354 0 .0544.0549.0544.0961.0544.0961 0 .5489-.2042 1.0567-.245.3019-.0136.6038.0953.8097.1906z"/><path d="m21.6899 20.5654c-.3019.0545-.4529.1498-.5489.245-.0961.0953-.151.1498-.151.2042v.0545h.0549c.0549 0 .2058-.0545.2058-.0545.398-.1497.6588-.1497.9058-.0953.151 0 .2059.0545.247 0 0 0 0-.0544 0-.0952-.0137-.1498-.3156-.2995-.7136-.2587z"/><path d="m23.8994 21.463c.2058.0953.398.0544.5078-.0953.0549-.1498-.0549-.354-.2471-.4493-.2058-.0952-.398-.0544-.5077.0953-.1098.1498.0411.354.247.4493z"/><path d="m25.1484 20.375c-.151 0-.302.1497-.302.3948 0 .2042.0961.3947.302.3947.1509 0 .3019-.1497.3019-.3947-.0412-.2042-.151-.3948-.3019-.3948z"/><path d="m14.5125 24.2542c-.0549-.0544-.0961-.0544-.1509 0-.0549 0-.0961 0-.151 0-.0961 0-.2059-.0544-.247-.1497-.0412-.0953-.0549-.245 0-.4492l.0549-.0953c.1509-.2995.3568-.7487.096-1.198-.2058-.3539-.4529-.5445-.8097-.5989-.3568-.0545-.6999.0953-.9057.3539-.3568.3948-.398.8985-.3568 1.089 0 .0545.0549.0953.096.0953.0549 0 .151-.0544.2059-.2042v-.0544c0-.0953.0549-.2042.1509-.3539.0961-.1498.2471-.2451.398-.2451.151-.0544.3568 0 .5078.0953.247.1498.3568.4492.247.7487-.1509.1498-.2058.3948-.2058.6534.0549.4493.3568.6534.6038.6943.247 0 .4529-.1498.4529-.245.0549-.0817.0137-.0817.0137-.1362z"/><path clip-rule="evenodd" d="m29.1144 23.4103c0-.0545-.0549-.2451-.151-.5445l-.2058-.4493c.3568-.5036.3568-.9937.3019-1.2387-.0549-.2995-.2058-.599-.4529-.8985-.247-.2995-.8508-.599-1.6056-.8031l-.398-.0953s0-.9529-.0549-1.3477c0-.2995-.0549-.7487-.2059-1.1979-.1509-.599-.4528-1.1435-.8508-1.4974 1.0018-1.0482 1.6605-2.2462 1.6605-3.2399 0-1.8922-2.3604-2.49114-5.3247-1.2932l-.6039.245s-1.0979-1.08901-1.1528-1.08901c-3.2525-2.88592-13.64125 8.61691-10.33385 11.40751l.69995.599c-.2059.5037-.2471 1.0482-.2059 1.6472.0961.7487.5078 1.4974 1.0979 2.0963.6038.5445 1.3998.8985 2.2095.8985 1.3037 2.9948 4.268 4.7781 7.7264 4.887 3.7191.0953 6.8755-1.6472 8.1793-4.7373.096-.2042.4529-1.1979.4529-2.0964.0823-.912-.4255-1.2523-.7823-1.2523zm-15.2606 2.3417c-.0299 0-.065.0052-.1025.0108-.0834.0125-.1787.0267-.2544-.0108-1.0979-.0545-2.3604-1.0482-2.4565-2.2461-.0961-1.2933.549-2.287 1.7566-2.5456.151-.0545.302-.0545.5078-.0545.6587.0545 1.6606.5445 1.9076 1.9875.1921 1.3613-.0961 2.6545-1.3586 2.8587zm-3.0604-4.438c.4117-.5989 1.0567-.9937 1.8115-1.1435.9469-2.5456 2.5526-4.887 4.666-6.4388 1.5645-1.2932 3.2663-2.2461 3.2663-2.2461s-.9058-1.0482-1.2077-1.1435c-1.6606-.43563-5.3248 2.0555-7.6304 5.3362-.9606 1.3068-2.31924 3.6891-1.6605 4.887.0549.1498.5078.5445.7548.7487zm13.6549 3.9341.0549-.0545c0-.0544-.0549-.0544-.0549-.0544s-1.7566.245-3.4172-.354c.1709-.497.5118-.441 1.0465-.353.1096.018.2273.0374.3533.0536 1.3038.0953 2.5115-.0953 3.3623-.354.7548-.2042 1.7567-.6534 2.5115-1.2387.247.5445.3568 1.1979.3568 1.1979s.2058-.0545.3568.0544c.1509.0953.247.2995.2058.8032-.1509.9937-.6038 1.7424-1.2488 2.4911-.398.4493-.9607.844-1.5508 1.1435-.3019.1498-.6587.2995-1.0018.3948-2.7173.844-5.4208-.0545-6.2717-2.0964-.014-.0383-.0308-.0765-.0479-.1157-.0498-.1141-.1031-.236-.1031-.388-.3568-1.3476-.0549-2.9403.9607-3.9341.0549-.0544.0961-.1497.0961-.245 0-.0823-.041-.1342-.0787-.1819-.006-.0075-.0118-.0149-.0174-.0223-.0696-.0982-.171-.2094-.2874-.3369-.4803-.5265-1.2152-1.332-1.0164-2.6579.151-1.1979 1.2077-1.9875 2.1547-1.9466h.247c.215 0 .434.0278.6354.0533.1714.0218.33.042.4625.042.5489 0 1.0979-.0545 1.7017-.5446.0341-.0248.0668-.0496.0988-.074.1613-.1227.3081-.2345.5599-.2799.016 0 .0308-.0046.0475-.0098.0407-.0127.0925-.0288.1996.0098.1509 0 .3019.0545.3979.1497.4828.3366.5438 1.0177.5958 1.5987l.0081.0893c0 .2012.0177.543.033.8382.0117.2241.0219.4214.0219.5095.0549.5037.1509.599.4529.6943.1509.0544.3019.0952.5077.1497.6588.2042 1.0568.3539 1.3038.599.1509.1497.2058.2994.247.4492.0961.5445-.4529 1.2388-1.8115 1.8922-1.5096.6942-3.2662.844-4.5151.6942l-.4529-.0544c-1.0018-.1498-1.5507 1.1435-.9606 1.9874.398.5446 1.4547.9529 2.4565.9529 2.4154 0 4.2681-.9937 4.9268-1.8921l.0549-.0953c.0549-.0545 0-.0953-.0549-.0545-.549.3948-3.0604 1.8922-5.7228 1.443 0 0-.3019-.0545-.6038-.1498-.247-.0952-.6999-.2994-.8097-.8031 2.2507.6534 3.6093 0 3.6093 0zm-4.7758-11.8027c-.9057.4493-1.9487 1.2932-2.7584 2.2461-.0357.0354-.0096.0401.0426.0496.0081.0015.0168.0031.026.0049.6999-.4901 1.6606-.9937 2.9643-1.2932 1.4547-.354 2.8134-.2042 3.6642 0 .0549 0 .1098-.0953.0549-.0953-.5489-.3403-1.3998-.5445-2.0036-.5445-.0549 0-.0549-.0545-.0549-.0545.0525-.0521.0984-.1042.1423-.154.0822-.0933.1572-.1786.2557-.2407 0 0 0-.0545-.0549-.0545-.8646.0408-1.8664.4492-2.4154.844 0 0-.0549 0-.0549-.0545.0265-.1314.0985-.2797.1611-.4087.0346-.0714.0664-.1368.0859-.1902 0-.0272 0-.0408-.0068-.0476-.0068-.0069-.0205-.0069-.0481-.0069z" fill-rule="evenodd"/></g></svg>