<svg fill="none" height="40" viewBox="0 0 40 40" width="40" xmlns="http://www.w3.org/2000/svg" xmlns:xlink="http://www.w3.org/1999/xlink"><linearGradient id="a" gradientUnits="userSpaceOnUse" x1="12.5338" x2="30.4958" y1="21.6139" y2="22.5211"><stop offset="0" stop-color="#0064e1"/><stop offset=".4" stop-color="#0064e1"/><stop offset=".83" stop-color="#0073ee"/><stop offset="1" stop-color="#0082fb"/></linearGradient><linearGradient id="b" gradientUnits="userSpaceOnUse" x1="11.0823" x2="11.0823" y1="23.6097" y2="16.9873"><stop offset="0" stop-color="#0082fb"/><stop offset="1" stop-color="#0064e0"/></linearGradient><rect fill="#f3f5fb" height="40" rx="20" width="40"/><path d="m9.81768 22.4268c0 .996.21862 1.7608.50442 2.2234.3746.606.9334.8628 1.5032.8628.7348 0 1.407-.1824 2.7024-1.9741 1.0378-1.436 2.2607-3.4517 3.0835-4.7154l1.3934-2.141c.968-1.4868 2.0883-3.1397 3.3729-4.2601 1.0487-.9144 2.1799-1.4224 3.3184-1.4224 1.9114 0 3.7321 1.1077 5.1256 3.1851 1.5249 2.2752 2.2652 5.1409 2.2652 8.0983 0 1.7581-.3466 3.0499-.9362 4.0705-.5697.987-1.6801 1.9731-3.548 1.9731v-2.814c1.5994 0 1.9985-1.4697 1.9985-3.1516 0-2.3967-.5588-5.0565-1.7898-6.9571-.8736-1.348-2.0058-2.1717-3.2513-2.1717-1.3472 0-2.4313 1.016-3.6496 2.8276-.6477.9625-1.3127 2.1355-2.0593 3.4591l-.8219 1.456c-1.651 2.9274-2.0692 3.5942-2.8948 4.6946-1.4469 1.9268-2.6825 2.6571-4.309 2.6571-1.9296 0-3.14975-.8355-3.90543-2.0947-.61687-1.026-.91987-2.3722-.91987-3.9062z" fill="#0081fb"/><path d="m9.22168 14.3838c1.29182-1.9913 3.15602-3.3838 5.29422-3.3838 1.2383 0 2.4694.3665 3.7548 1.4161 1.4061 1.1476 2.9048 3.0372 4.7745 6.1515l.6704 1.1177c1.6184 2.6961 2.5392 4.0832 3.078 4.7372.6931.8401 1.1784 1.0905 1.8089 1.0905 1.5994 0 1.9985-1.4697 1.9985-3.1516l2.4857-.078c0 1.7581-.3466 3.0499-.9362 4.0705-.5697.987-1.6801 1.9731-3.548 1.9731-1.1612 0-2.1899-.2522-3.3275-1.3254-.8745-.8237-1.8969-2.287-2.6834-3.6024l-2.3396-3.9081c-1.1739-1.9613-2.2507-3.4236-2.8739-4.0859-.6704-.7121-1.5322-1.5721-2.9075-1.5721-1.1131 0-2.0584.7811-2.8494 1.9758z" fill="url(#a)"/><path d="m14.4706 13.8331c-1.1131 0-2.0584.7811-2.8495 1.9758-1.1185 1.6883-1.80342 4.203-1.80342 6.6179 0 .996.21862 1.7608.50442 2.2234l-2.40223 1.5821c-.61687-1.026-.91987-2.3722-.91987-3.9062 0-2.7896.76565-5.6971 2.22167-7.9423 1.29183-1.9913 3.15603-3.3838 5.29423-3.3838z" fill="url(#b)"/></svg>