<svg fill="none" height="40" viewBox="0 0 40 40" width="40" xmlns="http://www.w3.org/2000/svg"><rect fill="#f3f5fb" height="40" rx="20" width="40"/><path d="m17.8323 13.1779c.9175-.9594 2.1943-1.5535 3.6049-1.5535 1.8808 0 3.5108 1.0497 4.3886 2.6138.7791-.3499 1.6229-.5306 2.4763-.5301 3.3855 0 6.1335 2.7817 6.1335 6.2143 0 3.4325-2.748 6.2143-6.1335 6.2143-.4137 0-.8171-.0418-1.212-.1207-.768 1.3751-2.2361 2.3093-3.9079 2.3093-.6807.0014-1.3526-.1537-1.9644-.4534-.7785 1.837-2.5913 3.1281-4.702 3.1281-2.2047 0-4.0751-1.3961-4.7961-3.3591-.3209.068-.6479.1022-.9759.102-2.62267 0-4.7438-2.1624-4.7438-4.8181 0-1.7846.95503-3.3381 2.3719-4.1779-.30059-.6957-.45531-1.446-.45453-2.2044 0-3.0652 2.47643-5.5425 5.52743-5.5425 1.7868 0 3.3855.8555 4.3886 2.1834" fill="#00a1e0"/></svg>