<svg fill="none" height="40" viewBox="0 0 40 40" width="40" xmlns="http://www.w3.org/2000/svg"><rect fill="#f3f5fb" height="40" rx="20" width="40"/><path d="m22.0871 31.0168-4.166-4.0622 8.947-9.1362 4.3132 4.2272z" fill="#8ab4f8"/><path d="m22.105 13.0565-4.151-4.23814-9.07649 8.99034c-1.17001 1.17-1.17001 3.0668 0 4.2381l8.94009 8.9985 4.2274-3.9545-6.8115-7.1631z" fill="#4285f4"/><path d="m31.1215 17.8784-9.0001-8.99989c-1.1714-1.17135-3.071-1.17135-4.2424 0-1.1714 1.17139-1.1714 3.07089 0 4.24219l9.0001 8.9999c1.1714 1.1713 3.071 1.1713 4.2424 0 1.1714-1.1714 1.1714-3.0709 0-4.2422z" fill="#8ab4f8"/><ellipse cx="19.9314" cy="29.0675" fill="#246fdb" rx="2.93186" ry="2.93177"/></svg>