<svg fill="none" height="40" viewBox="0 0 40 40" width="40" xmlns="http://www.w3.org/2000/svg"><rect fill="#f3f5fb" height="40" rx="20" width="40"/><path clip-rule="evenodd" d="m20.0007 6c-7.7203 0-14.0007 6.2799-14.0007 13.9994 0 7.7201 6.2807 14.0006 14.0004 14.0006 7.7195 0 13.9996-6.2805 13.9996-14.0006.0003-7.7192-6.2798-13.9994-13.9993-13.9994zm-12.58786 13.9994c0-1.8245.39132-3.5573 1.08989-5.1223l6.00457 16.4509c-4.1987-2.0406-7.09446-6.3462-7.09446-11.3286zm9.03196 12.0751c1.1277.3317 2.3203.513 3.5559.513 1.4658 0 2.8717-.2535 4.1801-.7137-.0341-.0538-.0646-.1109-.0896-.1734l-3.8699-10.5998zm5.2903-17.9767c.7576-.0398 1.441-.1198 1.441-.1198.6779-.0803.5985-1.0768-.0806-1.0369 0 0-2.0386.1597-3.3552.1597-1.2365 0-3.3156-.1597-3.3156-.1597-.6785-.0399-.7577.997-.0795 1.0369 0 0 .6425.08 1.3201.1198l1.961 5.3734-2.7547 8.2612-4.5831-13.6343c.7588-.0395 1.4408-.1198 1.4408-.1198.6779-.08.5979-1.0771-.0809-1.0364 0 0-2.0378.1598-3.3546.1598-.2365 0-.51497-.0061-.80999-.0152 2.25019-3.41762 6.11949-5.67385 10.51689-5.67385 3.2776 0 6.2609 1.25278 8.5001 3.30415-.0203-.001-.0403-.0027-.0604-.0044-.0338-.0029-.0677-.0057-.1031-.0057-1.236 0-2.1135 1.077-2.1135 2.2341 0 .9568.5091 1.7784 1.0891 2.7143.0485.0783.0976.1575.1469.2376.4792.8384 1.0378 1.9158 1.0378 3.4714 0 1.0117-.3647 2.1752-.8597 3.7548l-.0984.3143-1.2555 4.1957zm8.4383 5.6661-3.8448 11.1162c3.7418-2.1821 6.2591-6.2366 6.2594-10.88.0006-2.1884-.5589-4.2463-1.5423-6.0393.0547.4012.085.8315.085 1.2944 0 1.2775-.2383 2.7133-.9573 4.5087z" fill="#1387bf" fill-rule="evenodd"/></svg>