<svg fill="none" height="40" viewBox="0 0 40 40" width="40" xmlns="http://www.w3.org/2000/svg"><rect fill="#f3f5fb" height="40" rx="20" width="40"/><path d="m10.3405 22.5878 1.2941 4.8296c.7147 2.6674 3.4564 4.2503 6.1237 3.5356l4.8297-1.2941" stroke="#ffc049" stroke-width="5"/><path d="m21.941 27.2447c-1.3337.3573-2.1251 1.7282-1.7678 3.0618.3574 1.3337 1.7282 2.1251 3.0619 1.7678zm10.1329-10.4797-.647-2.4148-4.8296 1.2941.647 2.4148zm-5.3033 9.1856-4.8296 1.2941 1.2941 4.8296 4.8296-1.2941zm.4737-7.8915 1.2941 4.8296 4.8296-1.2941-1.2941-4.8296zm.8204 12.7211c4.001-1.0721 6.3754-5.1846 5.3033-9.1856l-4.8296 1.2941c.3574 1.3337-.4341 2.7045-1.7678 3.0619z" fill="#3e7dc9"/><path d="m27.2444 18.0583c.3574 1.3336 1.7282 2.1251 3.0619 1.7677 1.3336-.3573 2.1251-1.7282 1.7677-3.0618zm-1.2941-4.8297 1.2941 4.8297 4.8296-1.2941-1.294-4.8297zm-7.8915-.4736 4.8297-1.2941-1.2941-4.82967-4.8297 1.2941zm12.7212-.8205c-1.0721-4.00096-5.1846-6.37533-9.1856-5.30327l1.2941 4.82967c1.3336-.3574 2.7045.4341 3.0618 1.7677z" fill="#50b05f"/><path d="m18.0587 12.7553c1.3337-.3573 2.1252-1.7282 1.7678-3.06183-.3573-1.33366-1.7282-2.12512-3.0618-1.76776zm-4.8296 1.2941 4.8296-1.2941-1.294-4.82959-4.8297 1.29409zm-.4737 7.8915-1.294-4.8296-4.82968 1.2941 1.2941 4.8296zm-.8204-12.7211c-4.00097 1.0721-6.37534 5.1846-5.30328 9.1856l4.82968-1.2941c-.3574-1.3337.4341-2.7045 1.7677-3.0619z" fill="#ed4138"/><path d="m12.7555 21.9409c-.3574-1.3337-1.7282-2.1251-3.06191-1.7678-1.33366.3574-2.12512 1.7282-1.76776 3.0619zm1.1764 4.3906-1.1764-4.3906-4.82967 1.2941 1.17645 4.3906z" fill="#ffc049"/></svg>