<svg xmlns="http://www.w3.org/2000/svg" width="640" height="500" viewBox="0 0 640 500" fill="none"><g clip-path="url(#clip0_4251_10435)"><rect width="640" height="500" rx="20" fill="#BFE3E2"></rect><line x1="472.816" y1="3.28302e-08" x2="472.816" y2="237.338" stroke="white" stroke-width="1.50214"></line><line x1="556.935" y1="3.28302e-08" x2="556.935" y2="193.776" stroke="white" stroke-width="1.50214"></line><line x1="664.338" y1="50.3214" x2="427" y2="50.3214" stroke="white" stroke-width="1.50214"></line><line x1="664.338" y1="134.441" x2="509.618" y2="134.441" stroke="white" stroke-width="1.50214"></line><g opacity="0.1" filter="url(#filter0_f_4251_10435)"><rect x="102" y="444" width="255" height="426" transform="rotate(-90 102 444)" fill="black"></rect></g><rect x="70" y="64" width="501" height="372" rx="16" fill="white"></rect><g clip-path="url(#clip1_4251_10435)"><path opacity="0.2" fill-rule="evenodd" clip-rule="evenodd" d="M70 293.752C70 291.098 73.1924 289.751 75.0933 291.603L87.0781 303.278C87.9681 304.145 89.3003 304.373 90.4284 303.853L105.405 296.942C106.448 296.461 107.675 296.618 108.564 297.347L125.319 311.091C125.549 311.28 125.807 311.434 126.083 311.547L142.509 318.284C143.559 318.715 144.763 318.516 145.618 317.77L161.313 304.09C162.204 303.314 163.468 303.133 164.542 303.628L180.362 310.928C180.99 311.218 181.499 311.716 181.802 312.337L197.446 344.419C198.493 346.567 201.509 346.688 202.725 344.631L217.894 318.967C218.25 318.365 218.805 317.906 219.463 317.67L234.698 312.202C236.038 311.721 237.532 312.249 238.273 313.465L253.345 338.192C254.423 339.961 256.928 340.13 258.235 338.522L273.958 319.175C274.06 319.05 274.152 318.916 274.232 318.776L290.064 291.178C291.217 289.168 294.116 289.168 295.269 291.178L308.62 314.451C309.773 316.46 312.672 316.46 313.824 314.451L327.51 290.594C328.583 288.724 331.219 288.562 332.512 290.287L348.333 311.376L366.564 332.874C366.779 333.127 366.951 333.415 367.071 333.724L383.799 376.605C384.58 378.606 387.149 379.163 388.687 377.664L403.744 362.997C403.914 362.831 404.064 362.646 404.19 362.446L422.556 333.257L440.56 303.719C440.917 303.133 441.463 302.688 442.108 302.456L459.667 296.155L475.972 287.796C477.272 287.129 478.863 287.496 479.74 288.665L496.606 311.148C496.72 311.3 496.82 311.462 496.903 311.633L515.001 348.749C515.219 349.195 515.545 349.581 515.949 349.871L531.741 361.206C532.968 362.087 534.66 361.918 535.688 360.81L552.141 343.096C552.342 342.88 552.51 342.635 552.64 342.37L565.303 316.399C566.698 313.539 571 314.532 571 317.714V432.049C571 433.706 569.657 435.049 568 435.049H73C71.3431 435.049 70 433.706 70 432.049V293.752Z" fill="url(#paint0_linear_4251_10435)"></path><path d="M70 286.642L87.0781 303.278C87.9681 304.145 89.3003 304.373 90.4284 303.853L105.405 296.942C106.448 296.461 107.675 296.618 108.564 297.347L125.319 311.091C125.549 311.28 125.807 311.434 126.083 311.547L142.509 318.284C143.559 318.715 144.763 318.516 145.618 317.77L161.313 304.09C162.204 303.314 163.468 303.133 164.542 303.628L180.362 310.928C180.99 311.218 181.499 311.716 181.802 312.337L197.446 344.419C198.493 346.567 201.509 346.688 202.725 344.631L217.894 318.967C218.25 318.365 218.805 317.906 219.463 317.67L234.698 312.202C236.038 311.721 237.532 312.249 238.273 313.465L253.345 338.192C254.423 339.961 256.928 340.13 258.235 338.522L273.958 319.175C274.06 319.05 274.152 318.916 274.232 318.776L290.064 291.178C291.217 289.168 294.116 289.168 295.269 291.178L308.62 314.451C309.773 316.46 312.672 316.46 313.824 314.451L327.51 290.594C328.583 288.724 331.219 288.562 332.512 290.287L348.333 311.376L366.564 332.874C366.779 333.127 366.951 333.415 367.071 333.724L383.799 376.605C384.58 378.606 387.149 379.163 388.687 377.664L403.744 362.997C403.914 362.831 404.064 362.646 404.19 362.446L422.556 333.257L440.56 303.719C440.917 303.133 441.463 302.688 442.108 302.456L459.667 296.155L475.972 287.796C477.272 287.129 478.863 287.496 479.74 288.665L496.606 311.148C496.72 311.3 496.82 311.462 496.903 311.633L515.001 348.749C515.219 349.195 515.545 349.581 515.949 349.871L531.741 361.206C532.968 362.087 534.66 361.918 535.688 360.81L552.141 343.096C552.342 342.88 552.51 342.635 552.64 342.37L571 304.717" stroke="#0D9276" stroke-width="2"></path><path fill-rule="evenodd" clip-rule="evenodd" d="M329.777 222.903H330.241V436H329.777V222.903Z" fill="#0D9276"></path><ellipse cx="330.241" cy="287.117" rx="4.175" ry="4.28097" fill="#0D9276" stroke="white" stroke-width="2"></ellipse></g><path d="M114.12 117.4L105.92 125.04H119.16V129H99.48V125.52L111.28 114.32C113.147 112.507 114.08 110.733 114.08 109C114.08 107.667 113.627 106.613 112.72 105.84C111.84 105.04 110.68 104.64 109.24 104.64C107.587 104.64 106.293 105.133 105.36 106.12C104.453 107.08 104 108.427 104 110.16H99.44C99.44 107.253 100.333 104.933 102.12 103.2C103.933 101.467 106.347 100.6 109.36 100.6C112.16 100.6 114.4 101.36 116.08 102.88C117.76 104.373 118.6 106.387 118.6 108.92C118.6 111.827 117.107 114.653 114.12 117.4ZM136.328 101L130.368 111.08C133.328 110.44 135.954 111 138.248 112.76C140.541 114.493 141.688 116.893 141.688 119.96C141.688 122.653 140.728 124.907 138.808 126.72C136.914 128.507 134.514 129.4 131.608 129.4C128.701 129.4 126.301 128.507 124.408 126.72C122.514 124.933 121.568 122.68 121.568 119.96C121.568 118.2 122.208 116.24 123.488 114.08L131.288 101H136.328ZM127.688 123.8C128.728 124.813 130.034 125.32 131.608 125.32C133.181 125.32 134.488 124.813 135.528 123.8C136.594 122.787 137.128 121.507 137.128 119.96C137.128 118.413 136.594 117.133 135.528 116.12C134.488 115.08 133.181 114.56 131.608 114.56C130.034 114.56 128.728 115.08 127.688 116.12C126.648 117.133 126.128 118.413 126.128 119.96C126.128 121.507 126.648 122.787 127.688 123.8Z" fill="#1C1A17"></path><path d="M106.321 156H104.787L103.877 153.803H99.496L98.586 156H97.117L100.939 146.9H102.512L106.321 156ZM101.693 148.486L100.029 152.516H103.344L101.693 148.486ZM109.84 154.44L112.752 146.9H114.208L110.594 156H109.021L105.394 146.9H106.928L109.84 154.44ZM118.244 150.982H123.6C123.66 151.727 123.578 152.429 123.353 153.088C123.127 153.738 122.798 154.284 122.365 154.726C121.931 155.159 121.42 155.502 120.831 155.753C120.241 156.004 119.626 156.13 118.985 156.13C117.641 156.13 116.51 155.679 115.592 154.778C114.682 153.877 114.227 152.767 114.227 151.45C114.227 150.133 114.682 149.023 115.592 148.122C116.51 147.221 117.641 146.77 118.985 146.77C119.955 146.77 120.813 147.026 121.559 147.537C122.304 148.04 122.846 148.664 123.184 149.409L121.858 149.929C121.598 149.383 121.212 148.941 120.701 148.603C120.198 148.265 119.626 148.096 118.985 148.096C118.057 148.096 117.277 148.421 116.645 149.071C116.021 149.712 115.709 150.505 115.709 151.45C115.709 152.395 116.021 153.192 116.645 153.842C117.277 154.483 118.057 154.804 118.985 154.804C119.808 154.804 120.501 154.557 121.065 154.063C121.637 153.56 121.962 152.962 122.04 152.269H118.244V150.982ZM124.455 155.831C124.273 155.649 124.182 155.432 124.182 155.181C124.182 154.93 124.273 154.713 124.455 154.531C124.637 154.349 124.854 154.258 125.105 154.258C125.356 154.258 125.573 154.349 125.755 154.531C125.937 154.713 126.028 154.93 126.028 155.181C126.028 155.432 125.937 155.649 125.755 155.831C125.573 156.013 125.356 156.104 125.105 156.104C124.854 156.104 124.637 156.013 124.455 155.831ZM132.738 156H131.295V146.9H134.935C135.863 146.9 136.617 147.173 137.197 147.719C137.778 148.265 138.068 148.954 138.068 149.786C138.068 150.609 137.778 151.29 137.197 151.827C136.617 152.364 135.863 152.633 134.935 152.633H132.738V156ZM132.738 148.187V151.346H134.935C135.421 151.346 135.815 151.199 136.118 150.904C136.43 150.601 136.586 150.224 136.586 149.773C136.586 149.314 136.43 148.937 136.118 148.642C135.815 148.339 135.421 148.187 134.935 148.187H132.738ZM144.838 156H139.014V146.9H144.838V148.187H140.457V150.813H144.708V152.087H140.457V154.713H144.838V156ZM150.763 152.386L153.207 156H151.478L149.099 152.464H147.63V156H146.187V146.9H149.957C150.85 146.9 151.573 147.164 152.128 147.693C152.691 148.213 152.973 148.876 152.973 149.682C152.973 150.349 152.774 150.93 152.375 151.424C151.976 151.918 151.439 152.239 150.763 152.386ZM149.957 148.187H147.63V151.151H149.957C150.408 151.151 150.776 151.012 151.062 150.735C151.348 150.449 151.491 150.094 151.491 149.669C151.491 149.244 151.348 148.893 151.062 148.616C150.776 148.33 150.408 148.187 149.957 148.187ZM161.653 156H158.247V146.9H161.653C162.979 146.9 164.08 147.338 164.955 148.213C165.839 149.08 166.281 150.159 166.281 151.45C166.281 152.741 165.839 153.825 164.955 154.7C164.08 155.567 162.979 156 161.653 156ZM159.69 148.187V154.713H161.549C162.494 154.713 163.27 154.405 163.876 153.79C164.492 153.166 164.799 152.386 164.799 151.45C164.799 150.505 164.492 149.725 163.876 149.11C163.27 148.495 162.494 148.187 161.549 148.187H159.69ZM175.371 156H173.837L172.927 153.803H168.546L167.636 156H166.167L169.989 146.9H171.562L175.371 156ZM170.743 148.486L169.079 152.516H172.394L170.743 148.486ZM182.927 146.9L179.469 152.854V154.713H181.107V156H176.401V154.713H178.039V152.854L174.581 146.9H176.271L178.793 151.437L181.315 146.9H182.927Z" fill="#717E95"></path><path opacity="0.8" d="M107.036 172.9V182H106.061V174.46L102.863 182H102.005L98.807 174.46V182H97.832V172.9H99.158L102.46 180.622L105.749 172.9H107.036ZM109.503 181.155C108.845 180.496 108.515 179.682 108.515 178.711C108.515 177.74 108.845 176.93 109.503 176.28C110.171 175.621 110.994 175.292 111.973 175.292C112.953 175.292 113.772 175.621 114.43 176.28C115.098 176.93 115.431 177.74 115.431 178.711C115.431 179.682 115.098 180.496 114.43 181.155C113.772 181.805 112.953 182.13 111.973 182.13C110.994 182.13 110.171 181.805 109.503 181.155ZM110.218 176.93C109.75 177.407 109.516 178 109.516 178.711C109.516 179.422 109.75 180.02 110.218 180.505C110.695 180.982 111.28 181.22 111.973 181.22C112.675 181.22 113.26 180.982 113.728 180.505C114.196 180.028 114.43 179.43 114.43 178.711C114.43 177.992 114.196 177.394 113.728 176.917C113.26 176.44 112.675 176.202 111.973 176.202C111.28 176.202 110.695 176.445 110.218 176.93ZM120.074 175.292C120.889 175.292 121.56 175.561 122.089 176.098C122.626 176.635 122.895 177.311 122.895 178.126V182H121.92V178.243C121.92 177.654 121.725 177.164 121.335 176.774C120.945 176.384 120.455 176.189 119.866 176.189C119.285 176.189 118.796 176.388 118.397 176.787C118.007 177.177 117.812 177.662 117.812 178.243V182H116.837V175.422H117.812V176.449C118.341 175.678 119.095 175.292 120.074 175.292ZM125.051 180.739C125.354 180.739 125.601 180.865 125.792 181.116C125.983 181.359 126.078 181.658 126.078 182.013C126.078 182.897 125.658 183.569 124.817 184.028L124.336 183.469C124.717 183.261 124.977 183.018 125.116 182.741C125.263 182.464 125.302 182.221 125.233 182.013C125.034 182.082 124.839 182.061 124.648 181.948C124.457 181.835 124.362 181.658 124.362 181.415C124.362 181.224 124.427 181.064 124.557 180.934C124.696 180.804 124.86 180.739 125.051 180.739ZM135.682 178.1L132.601 181.077H137.346V182H131.145V181.181L135.019 177.398C135.712 176.705 136.059 176.033 136.059 175.383C136.059 174.88 135.89 174.477 135.552 174.174C135.223 173.862 134.785 173.706 134.239 173.706C133.589 173.706 133.086 173.897 132.731 174.278C132.376 174.659 132.198 175.175 132.198 175.825H131.171C131.171 174.906 131.444 174.17 131.99 173.615C132.545 173.052 133.303 172.77 134.265 172.77C135.114 172.77 135.799 173.008 136.319 173.485C136.839 173.953 137.099 174.581 137.099 175.37C137.099 176.289 136.627 177.199 135.682 178.1ZM143.569 172.9V178.971H144.882V179.881H143.569V182H142.555V179.881H137.68V178.971L142.425 172.9H143.569ZM142.555 174.174L138.811 178.971H142.555V174.174ZM158.381 182H157.289L156.249 179.582H151.491L150.451 182H149.398L153.35 172.9H154.429L158.381 182ZM153.87 174.057L151.881 178.659H155.846L153.87 174.057ZM159.047 179.309V175.422H160.022V179.309C160.022 179.872 160.204 180.332 160.568 180.687C160.932 181.042 161.392 181.22 161.946 181.22C162.501 181.22 162.96 181.042 163.324 180.687C163.688 180.332 163.87 179.872 163.87 179.309V175.422H164.845V179.309C164.845 180.141 164.572 180.821 164.026 181.35C163.48 181.87 162.787 182.13 161.946 182.13C161.106 182.13 160.412 181.87 159.866 181.35C159.32 180.821 159.047 180.141 159.047 179.309ZM172.054 176.592V175.422H173.029V181.311C173.029 182.282 172.696 183.092 172.028 183.742C171.37 184.401 170.551 184.73 169.571 184.73C168.869 184.73 168.245 184.552 167.699 184.197C167.153 183.85 166.742 183.387 166.464 182.806L167.348 182.39C167.556 182.832 167.855 183.183 168.245 183.443C168.635 183.703 169.077 183.833 169.571 183.833C170.273 183.833 170.863 183.59 171.339 183.105C171.816 182.628 172.054 182.03 172.054 181.311V180.752C171.439 181.619 170.577 182.052 169.467 182.052C168.523 182.052 167.73 181.731 167.088 181.09C166.456 180.44 166.139 179.634 166.139 178.672C166.139 177.71 166.456 176.908 167.088 176.267C167.73 175.617 168.523 175.292 169.467 175.292C170.577 175.292 171.439 175.725 172.054 176.592ZM169.597 181.155C170.299 181.155 170.884 180.917 171.352 180.44C171.82 179.963 172.054 179.374 172.054 178.672C172.054 177.97 171.82 177.385 171.352 176.917C170.884 176.44 170.299 176.202 169.597 176.202C168.904 176.202 168.319 176.44 167.842 176.917C167.374 177.385 167.14 177.97 167.14 178.672C167.14 179.374 167.374 179.963 167.842 180.44C168.319 180.917 168.904 181.155 169.597 181.155Z" fill="#717E95"></path><g clip-path="url(#clip2_4251_10435)"><path d="M126.41 218.343C126.41 218.343 106.704 210.461 106.663 210.445C105.938 210.154 105.136 210.891 105.445 211.664C105.445 211.664 113.33 231.376 113.344 231.411C113.667 232.218 114.877 232.154 115.116 231.32L117.605 222.606C117.605 222.606 126.302 220.12 126.32 220.115C127.158 219.876 127.219 218.667 126.41 218.343ZM116.59 220.946C116.277 221.034 116.035 221.278 115.945 221.59L114.066 228.168L107.998 212.998L123.169 219.066L116.59 220.946Z" fill="#0D9276"></path><path d="M101.053 204.728C100.687 204.362 100.094 204.362 99.7278 204.728C99.3616 205.094 99.3616 205.688 99.7278 206.054C99.7278 206.054 102.355 208.68 102.361 208.687C102.717 209.042 103.332 209.041 103.687 208.687C104.053 208.32 104.053 207.727 103.687 207.361L101.053 204.728Z" fill="#0D9276"></path><path d="M109.608 208.947C109.832 208.965 110.066 208.891 110.27 208.687L112.903 206.054C113.27 205.688 113.27 205.094 112.903 204.728C112.537 204.362 111.944 204.362 111.578 204.728C111.578 204.728 108.959 207.346 108.945 207.361C108.327 207.979 108.921 208.892 109.608 208.947Z" fill="#0D9276"></path><path d="M102.362 213.944C102.362 213.944 99.7348 216.571 99.7289 216.577C99.1639 217.142 99.5898 218.177 100.392 218.177C100.632 218.177 100.871 218.085 101.055 217.902L103.688 215.27C104.054 214.904 104.054 214.31 103.688 213.944C103.321 213.578 102.728 213.578 102.362 213.944Z" fill="#0D9276"></path><path d="M102.213 211.315C102.213 210.798 101.794 210.378 101.276 210.378H97.9375C97.4193 210.378 97 210.798 97 211.315C97 211.833 97.4193 212.253 97.9375 212.253H101.276C101.794 212.253 102.213 211.833 102.213 211.315Z" fill="#0D9276"></path><path d="M106.314 207.213C106.833 207.213 107.252 206.793 107.252 206.276V202.938C107.252 202.42 106.833 202 106.314 202C105.796 202 105.377 202.42 105.377 202.938V206.276C105.377 206.793 105.796 207.213 106.314 207.213Z" fill="#0D9276"></path></g><line x1="211.5" y1="98" x2="211.5" y2="232" stroke="#D9DBE9"></line><path d="M244.976 118.5H241.024V107.3H244.976C246.587 107.3 247.931 107.839 249.008 108.916C250.096 109.983 250.64 111.311 250.64 112.9C250.64 114.489 250.096 115.823 249.008 116.9C247.931 117.967 246.587 118.5 244.976 118.5ZM242.272 108.436V117.364H244.896C246.176 117.364 247.237 116.937 248.08 116.084C248.933 115.231 249.36 114.169 249.36 112.9C249.36 111.62 248.933 110.559 248.08 109.716C247.237 108.863 246.176 108.436 244.896 108.436H242.272ZM255.328 110.244C256.245 110.244 256.992 110.489 257.568 110.98C258.144 111.46 258.432 112.137 258.432 113.012V118.5H257.232V117.044C256.517 118.121 255.493 118.66 254.16 118.66C253.381 118.66 252.752 118.463 252.272 118.068C251.802 117.663 251.568 117.119 251.568 116.436C251.568 115.711 251.829 115.151 252.352 114.756C252.885 114.361 253.573 114.121 254.416 114.036L256.224 113.828C256.896 113.764 257.232 113.455 257.232 112.9C257.232 112.399 257.056 112.004 256.704 111.716C256.352 111.428 255.888 111.284 255.312 111.284C254.736 111.284 254.24 111.428 253.824 111.716C253.408 112.004 253.125 112.447 252.976 113.044L251.808 112.724C252 111.924 252.41 111.311 253.04 110.884C253.68 110.457 254.442 110.244 255.328 110.244ZM254.368 117.652C255.189 117.652 255.872 117.38 256.416 116.836C256.96 116.281 257.232 115.636 257.232 114.9V114.436C257.072 114.617 256.709 114.74 256.144 114.804L254.4 114.996C253.909 115.06 253.514 115.209 253.216 115.444C252.917 115.668 252.768 115.977 252.768 116.372C252.768 116.756 252.912 117.065 253.2 117.3C253.498 117.535 253.888 117.652 254.368 117.652ZM260.771 111.492H258.947V110.404H260.771V107.508L261.971 107.14V110.404H264.435V111.492H261.971V115.748C261.971 116.345 262.099 116.772 262.355 117.028C262.611 117.284 263.032 117.412 263.619 117.412H264.435V118.5H263.619C262.648 118.5 261.928 118.271 261.459 117.812C261 117.353 260.771 116.649 260.771 115.7V111.492ZM268.953 110.244C269.871 110.244 270.617 110.489 271.193 110.98C271.769 111.46 272.057 112.137 272.057 113.012V118.5H270.857V117.044C270.143 118.121 269.119 118.66 267.785 118.66C267.007 118.66 266.377 118.463 265.897 118.068C265.428 117.663 265.193 117.119 265.193 116.436C265.193 115.711 265.455 115.151 265.977 114.756C266.511 114.361 267.199 114.121 268.041 114.036L269.849 113.828C270.521 113.764 270.857 113.455 270.857 112.9C270.857 112.399 270.681 112.004 270.329 111.716C269.977 111.428 269.513 111.284 268.937 111.284C268.361 111.284 267.865 111.428 267.449 111.716C267.033 112.004 266.751 112.447 266.601 113.044L265.433 112.724C265.625 111.924 266.036 111.311 266.665 110.884C267.305 110.457 268.068 110.244 268.953 110.244ZM267.993 117.652C268.815 117.652 269.497 117.38 270.041 116.836C270.585 116.281 270.857 115.636 270.857 114.9V114.436C270.697 114.617 270.335 114.74 269.769 114.804L268.025 114.996C267.535 115.06 267.14 115.209 266.841 115.444C266.543 115.668 266.393 115.977 266.393 116.372C266.393 116.756 266.537 117.065 266.825 117.3C267.124 117.535 267.513 117.652 267.993 117.652ZM279.101 117.46C278.291 116.649 277.885 115.647 277.885 114.452C277.885 113.257 278.291 112.26 279.101 111.46C279.923 110.649 280.936 110.244 282.141 110.244C283.016 110.244 283.795 110.473 284.477 110.932C285.171 111.38 285.683 111.993 286.013 112.772L284.909 113.156C284.664 112.601 284.296 112.164 283.805 111.844C283.315 111.524 282.76 111.364 282.141 111.364C281.288 111.364 280.568 111.663 279.981 112.26C279.405 112.847 279.117 113.577 279.117 114.452C279.117 115.327 279.405 116.063 279.981 116.66C280.568 117.247 281.288 117.54 282.141 117.54C282.76 117.54 283.315 117.38 283.805 117.06C284.296 116.74 284.664 116.303 284.909 115.748L286.013 116.132C285.683 116.911 285.171 117.529 284.477 117.988C283.795 118.436 283.016 118.66 282.141 118.66C280.936 118.66 279.923 118.26 279.101 117.46ZM290.65 110.244C291.567 110.244 292.314 110.489 292.89 110.98C293.466 111.46 293.754 112.137 293.754 113.012V118.5H292.554V117.044C291.839 118.121 290.815 118.66 289.482 118.66C288.703 118.66 288.074 118.463 287.594 118.068C287.124 117.663 286.89 117.119 286.89 116.436C286.89 115.711 287.151 115.151 287.674 114.756C288.207 114.361 288.895 114.121 289.738 114.036L291.546 113.828C292.218 113.764 292.554 113.455 292.554 112.9C292.554 112.399 292.378 112.004 292.026 111.716C291.674 111.428 291.21 111.284 290.634 111.284C290.058 111.284 289.562 111.428 289.146 111.716C288.73 112.004 288.447 112.447 288.298 113.044L287.13 112.724C287.322 111.924 287.732 111.311 288.362 110.884C289.002 110.457 289.764 110.244 290.65 110.244ZM289.69 117.652C290.511 117.652 291.194 117.38 291.738 116.836C292.282 116.281 292.554 115.636 292.554 114.9V114.436C292.394 114.617 292.031 114.74 291.466 114.804L289.722 114.996C289.231 115.06 288.836 115.209 288.538 115.444C288.239 115.668 288.09 115.977 288.09 116.372C288.09 116.756 288.234 117.065 288.522 117.3C288.82 117.535 289.21 117.652 289.69 117.652ZM296.093 111.492H294.269V110.404H296.093V107.508L297.293 107.14V110.404H299.757V111.492H297.293V115.748C297.293 116.345 297.421 116.772 297.677 117.028C297.933 117.284 298.354 117.412 298.941 117.412H299.757V118.5H298.941C297.97 118.5 297.25 118.271 296.781 117.812C296.322 117.353 296.093 116.649 296.093 115.7V111.492ZM304.632 110.244C305.88 110.244 306.904 110.687 307.704 111.572C308.515 112.447 308.872 113.529 308.776 114.82H301.656C301.742 115.631 302.067 116.297 302.632 116.82C303.208 117.332 303.907 117.588 304.728 117.588C305.358 117.588 305.918 117.433 306.408 117.124C306.899 116.815 307.272 116.393 307.528 115.86L308.552 116.292C308.211 117.007 307.704 117.583 307.032 118.02C306.36 118.447 305.587 118.66 304.712 118.66C303.507 118.66 302.494 118.26 301.672 117.46C300.862 116.649 300.456 115.647 300.456 114.452C300.456 113.257 300.856 112.26 301.656 111.46C302.456 110.649 303.448 110.244 304.632 110.244ZM304.632 111.316C303.896 111.316 303.256 111.551 302.712 112.02C302.168 112.489 301.827 113.092 301.688 113.828H307.56C307.443 113.103 307.112 112.505 306.568 112.036C306.035 111.556 305.39 111.316 304.632 111.316ZM317.073 111.844V110.404H318.273V117.652C318.273 118.847 317.862 119.844 317.041 120.644C316.23 121.455 315.222 121.86 314.017 121.86C313.153 121.86 312.385 121.641 311.713 121.204C311.041 120.777 310.534 120.207 310.193 119.492L311.281 118.98C311.537 119.524 311.905 119.956 312.385 120.276C312.865 120.596 313.409 120.756 314.017 120.756C314.881 120.756 315.606 120.457 316.193 119.86C316.779 119.273 317.073 118.537 317.073 117.652V116.964C316.315 118.031 315.254 118.564 313.889 118.564C312.726 118.564 311.75 118.169 310.961 117.38C310.182 116.58 309.793 115.588 309.793 114.404C309.793 113.22 310.182 112.233 310.961 111.444C311.75 110.644 312.726 110.244 313.889 110.244C315.254 110.244 316.315 110.777 317.073 111.844ZM314.049 117.46C314.913 117.46 315.633 117.167 316.209 116.58C316.785 115.993 317.073 115.268 317.073 114.404C317.073 113.54 316.785 112.82 316.209 112.244C315.633 111.657 314.913 111.364 314.049 111.364C313.195 111.364 312.475 111.657 311.889 112.244C311.313 112.82 311.025 113.54 311.025 114.404C311.025 115.268 311.313 115.993 311.889 116.58C312.475 117.167 313.195 117.46 314.049 117.46ZM320.892 117.46C320.081 116.649 319.676 115.647 319.676 114.452C319.676 113.257 320.081 112.26 320.892 111.46C321.713 110.649 322.727 110.244 323.932 110.244C325.137 110.244 326.145 110.649 326.956 111.46C327.777 112.26 328.188 113.257 328.188 114.452C328.188 115.647 327.777 116.649 326.956 117.46C326.145 118.26 325.137 118.66 323.932 118.66C322.727 118.66 321.713 118.26 320.892 117.46ZM321.772 112.26C321.196 112.847 320.908 113.577 320.908 114.452C320.908 115.327 321.196 116.063 321.772 116.66C322.359 117.247 323.079 117.54 323.932 117.54C324.796 117.54 325.516 117.247 326.092 116.66C326.668 116.073 326.956 115.337 326.956 114.452C326.956 113.567 326.668 112.831 326.092 112.244C325.516 111.657 324.796 111.364 323.932 111.364C323.079 111.364 322.359 111.663 321.772 112.26ZM330.798 110.404V111.7C331.15 111.167 331.614 110.772 332.19 110.516C332.776 110.26 333.411 110.191 334.094 110.308V111.476C333.187 111.273 332.408 111.412 331.758 111.892C331.118 112.361 330.798 113.023 330.798 113.876V118.5H329.598V110.404H330.798ZM338.18 117.316L341.012 110.404H342.244L337.444 121.7H336.212L337.524 118.612L334.052 110.404H335.364L338.18 117.316ZM348.665 111.492H346.841V110.404H348.665V107.508L349.865 107.14V110.404H352.329V111.492H349.865V115.748C349.865 116.345 349.993 116.772 350.249 117.028C350.505 117.284 350.927 117.412 351.513 117.412H352.329V118.5H351.513C350.543 118.5 349.823 118.271 349.353 117.812C348.895 117.353 348.665 116.649 348.665 115.7V111.492ZM356.611 117.316L359.443 110.404H360.675L355.875 121.7H354.643L355.955 118.612L352.483 110.404H353.795L356.611 117.316ZM365.819 110.244C366.982 110.244 367.953 110.649 368.731 111.46C369.521 112.26 369.915 113.257 369.915 114.452C369.915 115.647 369.526 116.649 368.747 117.46C367.969 118.26 366.993 118.66 365.819 118.66C364.465 118.66 363.403 118.121 362.635 117.044V121.7H361.435V110.404H362.635V111.86C363.403 110.783 364.465 110.244 365.819 110.244ZM365.659 117.54C366.523 117.54 367.243 117.247 367.819 116.66C368.395 116.073 368.683 115.337 368.683 114.452C368.683 113.567 368.395 112.831 367.819 112.244C367.243 111.657 366.523 111.364 365.659 111.364C364.806 111.364 364.086 111.663 363.499 112.26C362.923 112.847 362.635 113.577 362.635 114.452C362.635 115.327 362.923 116.063 363.499 116.66C364.086 117.247 364.806 117.54 365.659 117.54ZM375.065 110.244C376.313 110.244 377.337 110.687 378.137 111.572C378.948 112.447 379.305 113.529 379.209 114.82H372.089C372.174 115.631 372.5 116.297 373.065 116.82C373.641 117.332 374.34 117.588 375.161 117.588C375.79 117.588 376.35 117.433 376.841 117.124C377.332 116.815 377.705 116.393 377.961 115.86L378.985 116.292C378.644 117.007 378.137 117.583 377.465 118.02C376.793 118.447 376.02 118.66 375.145 118.66C373.94 118.66 372.926 118.26 372.105 117.46C371.294 116.649 370.889 115.647 370.889 114.452C370.889 113.257 371.289 112.26 372.089 111.46C372.889 110.649 373.881 110.244 375.065 110.244ZM375.065 111.316C374.329 111.316 373.689 111.551 373.145 112.02C372.601 112.489 372.26 113.092 372.121 113.828H377.993C377.876 113.103 377.545 112.505 377.001 112.036C376.468 111.556 375.822 111.316 375.065 111.316ZM392.043 108.308L388.923 111.86C390.011 111.913 390.865 112.249 391.483 112.868C392.102 113.487 392.411 114.276 392.411 115.236C392.411 116.228 392.059 117.049 391.355 117.7C390.651 118.34 389.707 118.66 388.523 118.66C387.371 118.66 386.454 118.361 385.771 117.764C385.099 117.156 384.726 116.329 384.651 115.284L385.931 115.14C385.985 115.865 386.235 116.441 386.683 116.868C387.131 117.295 387.745 117.508 388.523 117.508C389.334 117.508 389.969 117.289 390.427 116.852C390.897 116.415 391.131 115.855 391.131 115.172C391.131 114.489 390.891 113.935 390.411 113.508C389.942 113.071 389.238 112.852 388.299 112.852H387.579V111.828L390.539 108.436H385.147V107.3H392.043V108.308Z" fill="#454458"></path><rect x="515" y="99.5" width="29" height="29" rx="4" fill="#F3F3FB"></rect><rect x="515.25" y="99.75" width="28.5" height="28.5" rx="3.75" stroke="#878B92" stroke-opacity="0.15" stroke-width="0.5"></rect><mask id="path-25-outside-1_4251_10435" maskUnits="userSpaceOnUse" x="519" y="111.5" width="21" height="5" fill="black"><rect fill="white" x="519" y="111.5" width="21" height="5"></rect><path fill-rule="evenodd" clip-rule="evenodd" d="M523 114C523 114.828 522.328 115.5 521.5 115.5C520.672 115.5 520 114.828 520 114C520 113.172 520.672 112.5 521.5 112.5C522.328 112.5 523 113.172 523 114ZM531 114C531 114.828 530.328 115.5 529.5 115.5C528.672 115.5 528 114.828 528 114C528 113.172 528.672 112.5 529.5 112.5C530.328 112.5 531 113.172 531 114ZM537.5 115.5C538.328 115.5 539 114.828 539 114C539 113.172 538.328 112.5 537.5 112.5C536.672 112.5 536 113.172 536 114C536 114.828 536.672 115.5 537.5 115.5Z"></path></mask><path fill-rule="evenodd" clip-rule="evenodd" d="M523 114C523 114.828 522.328 115.5 521.5 115.5C520.672 115.5 520 114.828 520 114C520 113.172 520.672 112.5 521.5 112.5C522.328 112.5 523 113.172 523 114ZM531 114C531 114.828 530.328 115.5 529.5 115.5C528.672 115.5 528 114.828 528 114C528 113.172 528.672 112.5 529.5 112.5C530.328 112.5 531 113.172 531 114ZM537.5 115.5C538.328 115.5 539 114.828 539 114C539 113.172 538.328 112.5 537.5 112.5C536.672 112.5 536 113.172 536 114C536 114.828 536.672 115.5 537.5 115.5Z" fill="#47536D"></path><path d="M521.5 116C522.605 116 523.5 115.105 523.5 114H522.5C522.5 114.552 522.052 115 521.5 115V116ZM519.5 114C519.5 115.105 520.395 116 521.5 116V115C520.948 115 520.5 114.552 520.5 114H519.5ZM521.5 112C520.395 112 519.5 112.895 519.5 114H520.5C520.5 113.448 520.948 113 521.5 113V112ZM523.5 114C523.5 112.895 522.605 112 521.5 112V113C522.052 113 522.5 113.448 522.5 114H523.5ZM529.5 116C530.605 116 531.5 115.105 531.5 114H530.5C530.5 114.552 530.052 115 529.5 115V116ZM527.5 114C527.5 115.105 528.395 116 529.5 116V115C528.948 115 528.5 114.552 528.5 114H527.5ZM529.5 112C528.395 112 527.5 112.895 527.5 114H528.5C528.5 113.448 528.948 113 529.5 113V112ZM531.5 114C531.5 112.895 530.605 112 529.5 112V113C530.052 113 530.5 113.448 530.5 114H531.5ZM538.5 114C538.5 114.552 538.052 115 537.5 115V116C538.605 116 539.5 115.105 539.5 114H538.5ZM537.5 113C538.052 113 538.5 113.448 538.5 114H539.5C539.5 112.895 538.605 112 537.5 112V113ZM536.5 114C536.5 113.448 536.948 113 537.5 113V112C536.395 112 535.5 112.895 535.5 114H536.5ZM537.5 115C536.948 115 536.5 114.552 536.5 114H535.5C535.5 115.105 536.395 116 537.5 116V115Z" fill="#29304D" mask="url(#path-25-outside-1_4251_10435)"></path><rect x="240" y="144.5" width="48" height="33" rx="4" fill="#F3F3FB" fill-opacity="0.6"></rect><path d="M259.236 155.98V163.312H261.3V164.5H255.468V163.312H257.904V157.492L255.468 158.128V156.952L259.236 155.98ZM269.114 158.248C269.834 158.248 270.422 158.492 270.878 158.98C271.334 159.468 271.562 160.088 271.562 160.84V164.5H270.302V161.032C270.302 160.56 270.166 160.172 269.894 159.868C269.63 159.556 269.294 159.4 268.886 159.4C268.478 159.4 268.138 159.556 267.866 159.868C267.602 160.172 267.47 160.56 267.47 161.032V164.5H266.21V161.032C266.21 160.56 266.078 160.172 265.814 159.868C265.55 159.556 265.214 159.4 264.806 159.4C264.398 159.4 264.058 159.556 263.786 159.868C263.522 160.172 263.39 160.56 263.39 161.032V164.5H262.13V158.368H263.39V159.184C263.838 158.56 264.43 158.248 265.166 158.248C265.59 158.248 265.97 158.348 266.306 158.548C266.642 158.748 266.91 159.028 267.11 159.388C267.326 159.036 267.606 158.76 267.95 158.56C268.302 158.352 268.69 158.248 269.114 158.248Z" fill="#6C7293"></path><rect x="298" y="144.5" width="48" height="33" rx="4" fill="#F3F3FB" fill-opacity="0.6"></rect><path d="M319.036 157.144L316.864 159.484C317.608 159.548 318.2 159.808 318.64 160.264C319.088 160.72 319.312 161.304 319.312 162.016C319.312 162.776 319.036 163.4 318.484 163.888C317.94 164.376 317.22 164.62 316.324 164.62C315.444 164.62 314.744 164.392 314.224 163.936C313.704 163.472 313.412 162.832 313.348 162.016L314.716 161.86C314.74 162.34 314.892 162.716 315.172 162.988C315.46 163.26 315.848 163.396 316.336 163.396C316.84 163.396 317.236 163.264 317.524 163C317.812 162.728 317.956 162.368 317.956 161.92C317.956 161.488 317.8 161.14 317.488 160.876C317.176 160.604 316.72 160.468 316.12 160.468H315.472V159.424L317.416 157.288H313.732V156.1H319.036V157.144ZM327.594 158.248C328.314 158.248 328.902 158.492 329.358 158.98C329.814 159.468 330.042 160.088 330.042 160.84V164.5H328.782V161.032C328.782 160.56 328.646 160.172 328.374 159.868C328.11 159.556 327.774 159.4 327.366 159.4C326.958 159.4 326.618 159.556 326.346 159.868C326.082 160.172 325.95 160.56 325.95 161.032V164.5H324.69V161.032C324.69 160.56 324.558 160.172 324.294 159.868C324.03 159.556 323.694 159.4 323.286 159.4C322.878 159.4 322.538 159.556 322.266 159.868C322.002 160.172 321.87 160.56 321.87 161.032V164.5H320.61V158.368H321.87V159.184C322.318 158.56 322.91 158.248 323.646 158.248C324.07 158.248 324.45 158.348 324.786 158.548C325.122 158.748 325.39 159.028 325.59 159.388C325.806 159.036 326.086 158.76 326.43 158.56C326.782 158.352 327.17 158.248 327.594 158.248Z" fill="#6C7293"></path><rect x="356" y="144.5" width="48" height="33" rx="4" fill="#0D9276"></rect><path d="M375.896 156.1L374.108 159.124C374.996 158.932 375.784 159.1 376.472 159.628C377.16 160.148 377.504 160.868 377.504 161.788C377.504 162.596 377.216 163.272 376.64 163.816C376.072 164.352 375.352 164.62 374.48 164.62C373.608 164.62 372.888 164.352 372.32 163.816C371.752 163.28 371.468 162.604 371.468 161.788C371.468 161.26 371.66 160.672 372.044 160.024L374.384 156.1H375.896ZM373.304 162.94C373.616 163.244 374.008 163.396 374.48 163.396C374.952 163.396 375.344 163.244 375.656 162.94C375.976 162.636 376.136 162.252 376.136 161.788C376.136 161.324 375.976 160.94 375.656 160.636C375.344 160.324 374.952 160.168 374.48 160.168C374.008 160.168 373.616 160.324 373.304 160.636C372.992 160.94 372.836 161.324 372.836 161.788C372.836 162.252 372.992 162.636 373.304 162.94ZM385.665 158.248C386.385 158.248 386.973 158.492 387.429 158.98C387.885 159.468 388.113 160.088 388.113 160.84V164.5H386.853V161.032C386.853 160.56 386.717 160.172 386.445 159.868C386.181 159.556 385.845 159.4 385.437 159.4C385.029 159.4 384.689 159.556 384.417 159.868C384.153 160.172 384.021 160.56 384.021 161.032V164.5H382.761V161.032C382.761 160.56 382.629 160.172 382.365 159.868C382.101 159.556 381.765 159.4 381.357 159.4C380.949 159.4 380.609 159.556 380.337 159.868C380.073 160.172 379.941 160.56 379.941 161.032V164.5H378.681V158.368H379.941V159.184C380.389 158.56 380.981 158.248 381.717 158.248C382.141 158.248 382.521 158.348 382.857 158.548C383.193 158.748 383.461 159.028 383.661 159.388C383.877 159.036 384.157 158.76 384.501 158.56C384.853 158.352 385.241 158.248 385.665 158.248Z" fill="white"></path><rect x="414" y="144.5" width="48" height="33" rx="4" fill="#F3F3FB" fill-opacity="0.6"></rect><path d="M439.104 164.5H437.688L436.848 162.472H432.804L431.964 164.5H430.608L434.136 156.1H435.588L439.104 164.5ZM434.832 157.564L433.296 161.284H436.356L434.832 157.564ZM441.175 164.5H439.915V155.62H441.175V164.5ZM443.847 164.5H442.587V155.62H443.847V164.5Z" fill="#6C7293"></path><rect x="240" y="193.5" width="142" height="37" rx="4" fill="#F3F3FB"></rect><path d="M258.588 212.296V207.1H259.92V212.296C259.92 212.912 260.124 213.416 260.532 213.808C260.94 214.2 261.468 214.396 262.116 214.396C262.78 214.396 263.312 214.2 263.712 213.808C264.12 213.416 264.324 212.912 264.324 212.296V207.1H265.644V212.296C265.644 213.272 265.312 214.072 264.648 214.696C263.992 215.312 263.148 215.62 262.116 215.62C261.092 215.62 260.248 215.308 259.584 214.684C258.92 214.06 258.588 213.264 258.588 212.296ZM266.575 213.88L267.835 213.616C267.947 214.272 268.395 214.6 269.179 214.6C269.579 214.6 269.899 214.524 270.139 214.372C270.387 214.212 270.511 214.012 270.511 213.772C270.511 213.516 270.383 213.324 270.127 213.196C269.871 213.06 269.559 212.964 269.191 212.908C268.823 212.844 268.451 212.768 268.075 212.68C267.707 212.592 267.395 212.42 267.139 212.164C266.883 211.9 266.755 211.548 266.755 211.108C266.755 210.572 266.983 210.128 267.439 209.776C267.903 209.424 268.483 209.248 269.179 209.248C269.875 209.248 270.443 209.404 270.883 209.716C271.331 210.028 271.599 210.452 271.687 210.988L270.427 211.252C270.331 210.596 269.915 210.268 269.179 210.268C268.843 210.268 268.567 210.34 268.351 210.484C268.135 210.628 268.027 210.816 268.027 211.048C268.027 211.256 268.119 211.424 268.303 211.552C268.487 211.68 268.719 211.764 268.999 211.804C269.279 211.844 269.579 211.904 269.899 211.984C270.227 212.064 270.531 212.156 270.811 212.26C271.091 212.356 271.323 212.532 271.507 212.788C271.691 213.044 271.783 213.364 271.783 213.748C271.783 214.284 271.531 214.732 271.027 215.092C270.531 215.444 269.915 215.62 269.179 215.62C268.451 215.62 267.859 215.464 267.403 215.152C266.947 214.84 266.671 214.416 266.575 213.88ZM275.793 209.248C276.777 209.248 277.577 209.6 278.193 210.304C278.809 211.008 279.061 211.86 278.949 212.86H273.873C273.961 213.356 274.189 213.76 274.557 214.072C274.925 214.376 275.369 214.528 275.889 214.528C276.289 214.528 276.645 214.432 276.957 214.24C277.277 214.04 277.525 213.772 277.701 213.436L278.757 213.904C278.485 214.424 278.097 214.84 277.593 215.152C277.089 215.464 276.509 215.62 275.853 215.62C274.933 215.62 274.161 215.316 273.537 214.708C272.913 214.1 272.601 213.344 272.601 212.44C272.601 211.536 272.905 210.78 273.513 210.172C274.129 209.556 274.889 209.248 275.793 209.248ZM275.793 210.34C275.329 210.34 274.925 210.484 274.581 210.772C274.245 211.052 274.021 211.42 273.909 211.876H277.677C277.573 211.42 277.349 211.052 277.005 210.772C276.669 210.484 276.265 210.34 275.793 210.34ZM281.425 209.368V210.244C281.697 209.868 282.045 209.592 282.469 209.416C282.893 209.24 283.345 209.208 283.825 209.32V210.52C283.161 210.336 282.593 210.396 282.121 210.7C281.657 210.996 281.425 211.44 281.425 212.032V215.5H280.165V209.368H281.425Z" fill="#6C7293"></path><rect x="301" y="195.5" width="79" height="33" rx="4" fill="white"></rect><path d="M314.728 214.372C313.888 213.54 313.468 212.516 313.468 211.3C313.468 210.084 313.888 209.06 314.728 208.228C315.576 207.396 316.62 206.98 317.86 206.98C318.756 206.98 319.548 207.216 320.236 207.688C320.924 208.152 321.424 208.728 321.736 209.416L320.512 209.896C320.272 209.392 319.916 208.984 319.444 208.672C318.98 208.36 318.452 208.204 317.86 208.204C317.004 208.204 316.284 208.504 315.7 209.104C315.124 209.696 314.836 210.428 314.836 211.3C314.836 212.172 315.124 212.908 315.7 213.508C316.284 214.1 317.004 214.396 317.86 214.396C318.452 214.396 318.98 214.24 319.444 213.928C319.916 213.616 320.272 213.208 320.512 212.704L321.736 213.184C321.424 213.872 320.924 214.452 320.236 214.924C319.548 215.388 318.756 215.62 317.86 215.62C316.62 215.62 315.576 215.204 314.728 214.372ZM323.392 214.708C322.768 214.1 322.456 213.344 322.456 212.44C322.456 211.536 322.768 210.78 323.392 210.172C324.016 209.556 324.788 209.248 325.708 209.248C326.628 209.248 327.4 209.556 328.024 210.172C328.648 210.78 328.96 211.536 328.96 212.44C328.96 213.344 328.648 214.1 328.024 214.708C327.4 215.316 326.628 215.62 325.708 215.62C324.788 215.62 324.016 215.316 323.392 214.708ZM324.316 211C323.94 211.384 323.752 211.864 323.752 212.44C323.752 213.016 323.94 213.496 324.316 213.88C324.692 214.264 325.156 214.456 325.708 214.456C326.268 214.456 326.732 214.264 327.1 213.88C327.476 213.496 327.664 213.016 327.664 212.44C327.664 211.856 327.476 211.372 327.1 210.988C326.732 210.604 326.268 210.412 325.708 210.412C325.156 210.412 324.692 210.608 324.316 211ZM337.122 209.248C337.842 209.248 338.43 209.492 338.886 209.98C339.342 210.468 339.57 211.088 339.57 211.84V215.5H338.31V212.032C338.31 211.56 338.174 211.172 337.902 210.868C337.638 210.556 337.302 210.4 336.894 210.4C336.486 210.4 336.146 210.556 335.874 210.868C335.61 211.172 335.478 211.56 335.478 212.032V215.5H334.218V212.032C334.218 211.56 334.086 211.172 333.822 210.868C333.558 210.556 333.222 210.4 332.814 210.4C332.406 210.4 332.066 210.556 331.794 210.868C331.53 211.172 331.398 211.56 331.398 212.032V215.5H330.138V209.368H331.398V210.184C331.846 209.56 332.438 209.248 333.174 209.248C333.598 209.248 333.978 209.348 334.314 209.548C334.65 209.748 334.918 210.028 335.118 210.388C335.334 210.036 335.614 209.76 335.958 209.56C336.31 209.352 336.698 209.248 337.122 209.248ZM344.375 209.248C345.231 209.248 345.947 209.556 346.523 210.172C347.107 210.78 347.399 211.536 347.399 212.44C347.399 213.344 347.107 214.1 346.523 214.708C345.947 215.316 345.231 215.62 344.375 215.62C343.463 215.62 342.735 215.276 342.191 214.588V217.9H340.931V209.368H342.191V210.28C342.735 209.592 343.463 209.248 344.375 209.248ZM344.147 214.456C344.699 214.456 345.159 214.264 345.527 213.88C345.903 213.496 346.091 213.016 346.091 212.44C346.091 211.856 345.903 211.372 345.527 210.988C345.159 210.604 344.699 210.412 344.147 210.412C343.587 210.412 343.119 210.604 342.743 210.988C342.375 211.372 342.191 211.856 342.191 212.44C342.191 213.016 342.375 213.496 342.743 213.88C343.119 214.264 343.587 214.456 344.147 214.456ZM351.091 209.248C351.827 209.248 352.427 209.44 352.891 209.824C353.355 210.208 353.587 210.76 353.587 211.48V215.5H352.327V214.588C351.823 215.276 351.111 215.62 350.191 215.62C349.607 215.62 349.131 215.464 348.763 215.152C348.395 214.84 348.211 214.424 348.211 213.904C348.211 213.304 348.423 212.856 348.847 212.56C349.271 212.256 349.811 212.068 350.467 211.996L351.655 211.876C352.103 211.836 352.327 211.636 352.327 211.276C352.327 210.98 352.211 210.744 351.979 210.568C351.755 210.392 351.459 210.304 351.091 210.304C350.715 210.304 350.395 210.4 350.131 210.592C349.875 210.784 349.711 211.064 349.639 211.432L348.391 211.132C348.503 210.556 348.803 210.1 349.291 209.764C349.779 209.42 350.379 209.248 351.091 209.248ZM350.467 214.6C350.987 214.6 351.427 214.428 351.787 214.084C352.147 213.732 352.327 213.324 352.327 212.86V212.62C352.223 212.716 351.991 212.784 351.631 212.824L350.467 212.968C350.163 213.008 349.919 213.1 349.735 213.244C349.559 213.38 349.471 213.568 349.471 213.808C349.471 214.048 349.559 214.24 349.735 214.384C349.919 214.528 350.163 214.6 350.467 214.6ZM358.222 209.248C358.966 209.248 359.574 209.492 360.046 209.98C360.526 210.468 360.766 211.088 360.766 211.84V215.5H359.506V212.032C359.506 211.56 359.35 211.172 359.038 210.868C358.726 210.556 358.334 210.4 357.862 210.4C357.39 210.4 356.994 210.556 356.674 210.868C356.362 211.172 356.206 211.56 356.206 212.032V215.5H354.946V209.368H356.206V210.244C356.694 209.58 357.366 209.248 358.222 209.248ZM364.498 214.24L366.382 209.368H367.666L364.162 217.9H362.878L363.802 215.656L361.234 209.368H362.602L364.498 214.24Z" fill="#6C7293"></path></g><defs><filter id="filter0_f_4251_10435" x="2" y="89" width="626" height="455" filterUnits="userSpaceOnUse" color-interpolation-filters="sRGB"><feGaussianBlur stdDeviation="50"></feGaussianBlur></filter><linearGradient id="paint0_linear_4251_10435" x1="-180.57" y1="138.193" x2="-180.57" y2="435.049" gradientUnits="userSpaceOnUse"><stop stop-color="#0D9276"></stop><stop offset="1" stop-color="#0D9276" stop-opacity="0.01"></stop></linearGradient><clipPath id="clip0_4251_10435"><rect width="640" height="500" rx="20" fill="white"></rect></clipPath><clipPath id="clip1_4251_10435"><rect width="501" height="215" fill="white" transform="translate(70 221)"></rect></clipPath><clipPath id="clip2_4251_10435"><rect width="30" height="30" fill="white" transform="translate(97 202)"></rect></clipPath></defs></svg>